/* XPM */
static char *qrfcview[] = {
/* columns rows colors chars-per-pixel */
"32 32 202 2 ",
"   c #5C1515",
".  c #6C1819",
"X  c #761717",
"o  c #6E2431",
"O  c #755137",
"+  c #37356A",
"@  c #743A46",
"#  c #7A575D",
"$  c #535373",
"%  c #4C4D63",
"&  c #6D5A6C",
"*  c #7E5A61",
"=  c #63617C",
"-  c #7E6A7E",
";  c #74616E",
":  c #851818",
">  c #891818",
",  c #991B1C",
"<  c #A61A1A",
"1  c #BD1D1D",
"2  c #B61B1B",
"3  c #9D1F20",
"4  c #B61F20",
"5  c #A61E20",
"6  c #9D2728",
"7  c #8B3338",
"8  c #9C3436",
"9  c #9D2C31",
"0  c #A52224",
"q  c #A42C2E",
"w  c #AE2122",
"e  c #B32223",
"r  c #BA2122",
"t  c #B72628",
"y  c #B72A2A",
"u  c #A22D31",
"i  c #A53135",
"p  c #C51D1D",
"a  c #CC1C1C",
"s  c #D41C1C",
"d  c #DC1C1C",
"f  c #E31C1C",
"g  c #EB1D1D",
"h  c #C71F20",
"j  c #C62021",
"k  c #C82020",
"l  c #844C11",
"z  c #8D510F",
"x  c #B07226",
"c  c #CA7C0C",
"v  c #C6790A",
"b  c #CC7F10",
"n  c #873C47",
"m  c #963B44",
"M  c #89474B",
"N  c #97474A",
"B  c #864754",
"V  c #944D52",
"C  c #984B50",
"Z  c #85535A",
"A  c #985558",
"S  c #A64D4D",
"D  c #896450",
"F  c #865962",
"G  c #945E62",
"H  c #936366",
"J  c #896A79",
"K  c #99757A",
"L  c #927274",
"P  c #D7931D",
"I  c #C28730",
"U  c #DFA53B",
"Y  c #F1A623",
"T  c #ECA122",
"R  c #B39173",
"E  c #D19B49",
"W  c #D6A456",
"Q  c #E2AF5E",
"!  c #C19E7B",
"~  c #D8AA65",
"^  c #D0AB73",
"/  c #E6B460",
"(  c #F7C953",
")  c #F4C550",
"_  c #F9C865",
"`  c #F5C360",
"'  c #284E95",
"]  c #1654B7",
"[  c #3F61A2",
"{  c #4A5B8B",
"}  c #656484",
"|  c #6B6B8A",
" . c #6C7296",
".. c #64719B",
"X. c #757592",
"o. c #797995",
"O. c #7D7D98",
"+. c #73728F",
"@. c #5B71A5",
"#. c #5B6EA3",
"$. c #6C79A4",
"%. c #0D56C5",
"&. c #2E6DCD",
"*. c #817985",
"=. c #9A7C85",
"-. c #5980BA",
";. c #7B8EB2",
":. c #4C87D4",
">. c #659AD9",
",. c #7190C1",
"<. c #7DB1F0",
"1. c #998189",
"2. c #89859A",
"3. c #9C8D9A",
"4. c #A9949B",
"5. c #B29495",
"6. c #AE9581",
"7. c #BFA388",
"8. c #8285A2",
"9. c #8B8BA4",
"0. c #8F8FA9",
"q. c #888BA5",
"w. c #9594AC",
"e. c #9C9AAC",
"r. c #9F95A3",
"t. c #8A93B7",
"y. c #9C9DB3",
"u. c #9595B9",
"i. c #9A9ABB",
"p. c #9397B7",
"a. c #A396A6",
"s. c #9AA4B2",
"d. c #A3A4B9",
"f. c #A5AABA",
"g. c #ADACBD",
"h. c #A4A6B6",
"j. c #B9ACB0",
"k. c #AEB0BD",
"l. c #BBB4BC",
"z. c #C5A681",
"x. c #C0ACAF",
"c. c #C3BABE",
"v. c #FBE29C",
"b. c #FEEAA5",
"n. c #FFF3AB",
"m. c #8EA3C6",
"M. c #8DB4DA",
"N. c #95B6DE",
"B. c #9DA9C5",
"V. c #A4A4C5",
"C. c #ACACC3",
"Z. c #ADADC9",
"A. c #A6ADC4",
"S. c #A9B4CB",
"D. c #ACB5C8",
"F. c #B4B4CC",
"G. c #BBBBCC",
"H. c #B7B6C4",
"J. c #B9BAD3",
"K. c #B6BCD6",
"L. c #A0B4DA",
"P. c #84ABE3",
"I. c #82B4EA",
"U. c #96B5E7",
"Y. c #83BCFA",
"T. c #A3BAE3",
"R. c #B0CEDD",
"E. c #BEC0C6",
"W. c #93C1F6",
"Q. c #BDD3E4",
"!. c #BBD4EA",
"~. c #ADCEF4",
"^. c #B9D7F5",
"/. c #AAC7EA",
"(. c #C3C4CB",
"). c #C7C1C5",
"_. c #C1C4D3",
"`. c #C3C4DD",
"'. c #C9C9DB",
"]. c #C9CBD4",
"[. c #D2CED8",
"{. c #D7D5DC",
"}. c #CFCFD6",
"|. c #E5DCD9",
" X c #CBCBE1",
".X c #DCDBE5",
"XX c #DCDCEB",
"oX c #D4D6E5",
"OX c #C8E4FB",
"+X c #D5EDFC",
"@X c #DCF3FD",
"#X c #D4F0FE",
"$X c #E3E3EE",
"%X c #EBEBEF",
"&X c #E4E4F1",
"*X c #EDEDF2",
"=X c #E5FAFE",
"-X c #E8F6FD",
";X c #F2F1F4",
":X c #FCFDFE",
">X c #F2FEFF",
",X c None",
/* pixels */
",X,X,X,X,X,X,X{.).(.).).(.}.].).G.g.g.f.,X,X,X,X,X,X,X,X,X,X,X,X",
",X,X,X,X,X,X,X).H A A G F R [.$X5.V V V 7 . ,X,X,X  X X ,X,X,X,X",
",X,X,X,X,X,X,X1.1 f s d a 2 5.*XS s f d f 6 ,X  < a s d p X ,X,X",
",X,X,X,X,X,Xe.M s f 6 r g s L j.y g s 1 r M # 2 f < > s g , ,X,X",
",X,X,X,X9.h.e.q g k # q g h =.L s f 8 1.j.j.8 f k     s g > ,X,X",
",X,X,X8.d.B.+.h g q # j g i h.N f s M 3.c.5.1 g 0 ,X: s p . ,X,X",
",X,X,Xe.p.M.G f f 3 6 f p K k.y g d r w Z V d f C X.o : X ,X,X,X",
",X,X2.t.P.M.u g f d s > # Q.K s g f f p # 6 g p L i.*.,X,X,X,X,X",
",X,X9.;.Y.*.j g q u f a F R.N f d 7 C A F h g u a.F n . ,X,X,X,X",
",Xo.;.>.<.Z f f B n f d H s.t g t ;.K.l.V d d A 4.4 f < ,X,X,X,X",
",XX.$.&.-.9 g h ; i g p 2.J s f m P.T.l.6 f h J # s f : ,X,X,X,X",
",XX.#.%.+ h g i & h f 9 t.m f s - Y.U.a.4 g 4 * u g 2 ,X,X,X,X,X",
",XX.@.] @ d d n B f d F 8.t g e ;.<.U.4.4 g d 4 d r @ ,X,X,X,X,X",
",X| @.' o 4 0 & 7 4 0 2.- w 4 B <.<.L.H.Z 6 4 0 7 =.0.,X,X,X,X,X",
",X}  .{ { { ..m.d.f.f.Q.S.y.p.m.U.P.K.G.J.g.a.a.F.XXi.,X,X,X,X,X",
",X,X| #.:.>.P./.#X@X@X@X+XOX^.~.~.N.G.F. X X X`. X$Xi.,X,X,X,X,X",
",X,X=  .-.>.M.!.@X=X-X-X-X+XOX~.U.S.F.'.oX X X X X$Xi.,X,X,X,X,X",
",X,X,X| ..;.I.OX=X-X-X-X-X+XOX!.S.F.d.J. X`.`.J. XXXu.,X,X,X,X,X",
",X,X,X$ |  .;.^.=X>X:X>X-X+XQ.A.C.d.d.'..X.XXXoXoX&Xu.,X,X,X,X,X",
",X,X,X,X$ | X.q.D.}.oXoX_.C.d.y.0.w.C.e.7.~ H.J.`.&Xu.,X,X,X,X,X",
",X,X,X,X,X,X= X.;.2.2.0.w.w.y.G.g.d.9.R / ) Q }.XX&Xu.,X,X,X,X,X",
",X,X,X,X,X,X,Xd.H.k.f.C.F.]..XXX.X'.L E v.n.( W ).&Xt.,X,X,X,X,X",
",X,X,X,X,X,X,XJ.:X:X;X*X*X*X%X$X$X).x T _ b.n.( / |.u.,X,X,X,X,X",
",X,X,X,X,X,X,XF.:X:X;X*X*X%X$X$XXX.X! c Y _ b.n.( Q 2.,X,X,X,X,X",
",X,X,X,X,X,X,XF.:X:X:X:X:X;X*X&X$XXX[.R c Y _ b.n.( E ,X,X,X,X,X",
",X,X,X,X,X,X,XF.:X:X:X:X:X;X;X*X*X&X&X.X! b Y _ b.n.( P ,X,X,X,X",
",X,X,X,X,X,X,XF.:X:X:X:X:X:X:X:X:X:X:X:X;X! c Y _ b.n.( P ,X,X,X",
",X,X,X,X,X,X,Xu.F.F.F.F.F.Z.Z.Z.Z.V.V.V.V.i.D c Y _ b.b.U ,X,X,X",
",X,X,X,X,X,X,X,X,X,X,X,X,X,X,X,X,X,X,X,X,X,X,Xl v Y ( ~ z.1.,X,X",
",X,X,X,X,X,X,X,X,X,X,X,X,X,X,X,X,X,X,X,X,X,X,X,Xz v I R e.,X,X,X",
",X,X,X,X,X,X,X,X,X,X,X,X,X,X,X,X,X,X,X,X,X,X,X,X,Xl O = % ,X,X,X",
",X,X,X,X,X,X,X,X,X,X,X,X,X,X,X,X,X,X,X,X,X,X,X,X,X,X,X,X,X,X,X,X"
};
